<?xml version="1.0" encoding="UTF-8" standalone="no"?>
<!-- Created with Inkscape (http://www.inkscape.org/) -->

<svg
   xmlns:dc="http://purl.org/dc/elements/1.1/"
   xmlns:cc="http://creativecommons.org/ns#"
   xmlns:rdf="http://www.w3.org/1999/02/22-rdf-syntax-ns#"
   xmlns:svg="http://www.w3.org/2000/svg"
   xmlns="http://www.w3.org/2000/svg"
   xmlns:sodipodi="http://sodipodi.sourceforge.net/DTD/sodipodi-0.dtd"
   xmlns:inkscape="http://www.inkscape.org/namespaces/inkscape"
   width="240"
   height="240"
   id="svg2"
   version="1.1"
   inkscape:version="0.48.4 r9939"
   sodipodi:docname="cover.svg">
  <defs
     id="defs4" />
  <sodipodi:namedview
     id="base"
     pagecolor="#ffffff"
     bordercolor="#666666"
     borderopacity="1.0"
     inkscape:pageopacity="0.0"
     inkscape:pageshadow="2"
     inkscape:zoom="1.1605804"
     inkscape:cx="-14.978992"
     inkscape:cy="-54.913909"
     inkscape:document-units="px"
     inkscape:current-layer="layer1"
     showgrid="false"
     fit-margin-top="0"
     fit-margin-left="0"
     fit-margin-right="0"
     fit-margin-bottom="0"
     inkscape:window-width="1680"
     inkscape:window-height="988"
     inkscape:window-x="0"
     inkscape:window-y="27"
     inkscape:window-maximized="1" />
  <metadata
     id="metadata7">
    <rdf:RDF>
      <cc:Work
         rdf:about="">
        <dc:format>image/svg+xml</dc:format>
        <dc:type
           rdf:resource="http://purl.org/dc/dcmitype/StillImage" />
        <dc:title></dc:title>
      </cc:Work>
    </rdf:RDF>
  </metadata>
  <g
     inkscape:label="Layer 1"
     inkscape:groupmode="layer"
     id="layer1"
     transform="translate(-81.166183,-161.16685)">
    <rect
       style="fill:none;fill-opacity:1;stroke:none"
       id="rect3805"
       width="240"
       height="240"
       x="81.166183"
       y="161.16685" />
    <path
       style="fill:#65737e;fill-opacity:1;stroke:#1b2b34;stroke-width:1.84806025;stroke-miterlimit:4;stroke-opacity:1;stroke-dasharray:none"
       d="m 201.18929,181.18678 c -55.22848,0 -100.02627,44.7516 -100.02627,99.98008 0,55.22846 44.79779,99.98006 100.02627,99.98006 55.22846,0 99.98006,-44.7516 99.98006,-99.98006 0,-55.22848 -44.7516,-99.98008 -99.98006,-99.98008 z m 0,67.0846 c 18.17554,0 32.89546,14.71994 32.89546,32.89548 0,18.17554 -14.71992,32.89546 -32.89546,32.89546 -18.17554,0 -32.94168,-14.71992 -32.94168,-32.89546 0,-18.17554 14.76614,-32.89548 32.94168,-32.89548 z"
       id="path2987"
       inkscape:connector-curvature="0" />
    <path
       sodipodi:type="arc"
       style="fill:none;stroke:#4f5b66;stroke-width:3.19929671;stroke-miterlimit:4;stroke-opacity:1;stroke-dasharray:none"
       id="path2987-8-4"
       sodipodi:cx="189.85423"
       sodipodi:cy="348.45547"
       sodipodi:rx="67.638481"
       sodipodi:ry="67.638481"
       d="m 257.49271,348.45547 a 67.638481,67.638481 0 1 1 -135.27696,0 67.638481,67.638481 0 1 1 135.27696,0 z"
       transform="matrix(0.5776458,0,0,0.5776458,91.497683,79.883013)" />
  </g>
</svg>
